<svg width="1120" height="136" viewBox="0 0 1120 136" fill="none" xmlns="http://www.w3.org/2000/svg">
<path d="M398 97.9L407.2 96.4V23.6L398 22.2V20H429.4C439.267 20 446.6 22.1 451.4 26.3C456.2 30.5 458.6 36.5667 458.6 44.5C458.6 52.4333 456.2 58.5 451.4 62.7C446.6 66.9 439.267 69 429.4 69H418.2V96.4L427.4 97.9V100H398V97.9ZM428 66.6C440.333 66.6 446.5 59.9 446.5 46.5V42.5C446.5 29.1667 440.333 22.5 428 22.5H418.2V66.6H428ZM524.459 101C520.726 101 517.926 100.1 516.059 98.3C514.193 96.5 512.926 93.4333 512.259 89.1L510.359 75.7C509.693 71.1667 508.126 67.6333 505.659 65.1C503.259 62.5 499.493 61.2 494.359 61.2H486.559V96.4L495.759 97.9V100H466.359V97.9L475.559 96.4V23.6L466.359 22.2V20H494.359C505.226 20 513.093 21.7 517.959 25.1C522.826 28.5 525.259 33.6667 525.259 40.6C525.259 52.0667 518.326 58.7 504.459 60.5V61.1C509.593 61.8333 513.693 63.6667 516.759 66.6C519.893 69.5333 521.859 73.4333 522.659 78.3L523.959 86.9C524.493 90.6333 525.093 93.1667 525.759 94.5C526.493 95.8333 527.593 96.5 529.059 96.5C530.059 96.5 531.126 96.2 532.259 95.6C533.393 94.9333 534.459 94.1 535.459 93.1L537.159 94.9C535.226 97.1 533.226 98.6667 531.159 99.6C529.093 100.533 526.859 101 524.459 101ZM497.759 58.8C502.626 58.8 506.393 57.3333 509.059 54.4C511.793 51.4 513.159 47 513.159 41.2V39.1C513.159 28.0333 506.893 22.5 494.359 22.5H486.559V58.8H497.759ZM578.116 102C570.849 102 564.349 100.233 558.616 96.7C552.882 93.1667 548.416 88.2333 545.216 81.9C542.016 75.5 540.416 68.2 540.416 60C540.416 51.8 542.016 44.5333 545.216 38.2C548.416 31.8 552.882 26.8333 558.616 23.3C564.349 19.7667 570.849 18 578.116 18C585.382 18 591.882 19.7667 597.616 23.3C603.349 26.8333 607.816 31.8 611.016 38.2C614.216 44.5333 615.816 51.8 615.816 60C615.816 68.2 614.216 75.5 611.016 81.9C607.816 88.2333 603.349 93.1667 597.616 96.7C591.882 100.233 585.382 102 578.116 102ZM578.116 99.7C582.916 99.7 587.216 98.4333 591.016 95.9C594.882 93.3667 597.916 89.7 600.116 84.9C602.316 80.0333 603.416 74.3 603.416 67.7V52.3C603.416 45.7 602.316 40 600.116 35.2C597.916 30.3333 594.882 26.6333 591.016 24.1C587.216 21.5667 582.916 20.3 578.116 20.3C573.249 20.3 568.916 21.5667 565.116 24.1C561.316 26.6333 558.316 30.3333 556.116 35.2C553.916 40 552.816 45.7 552.816 52.3V67.7C552.816 74.3 553.916 80.0333 556.116 84.9C558.316 89.7 561.316 93.3667 565.116 95.9C568.916 98.4333 573.249 99.7 578.116 99.7ZM625.246 100V97.9L634.446 96.4V23.6L625.246 22.2V20H685.446V42.9H682.746L675.046 22.5H645.446V60H662.346L668.246 45.5H670.946V77.1H668.246L662.346 62.4H645.446V96.4L654.646 97.9V100H625.246ZM692.434 100V97.9L701.634 96.4V23.6L692.434 22.2V20H752.634V42.9H749.934L742.234 22.5H712.634V58.5H725.634L731.534 44H734.134V75.6H731.534L725.534 60.9H712.634V97.6H744.034L752.234 75.6H754.834V100H692.434ZM796.204 102C790.004 102 783.904 100.233 777.904 96.7L769.404 101H767.204V75.3H769.404L778.004 93.9C783.537 97.8333 789.871 99.8 797.004 99.8C802.871 99.8 807.704 98.2667 811.504 95.2C815.371 92.0667 817.304 87.7 817.304 82.1C817.304 78.0333 816.071 74.8333 813.604 72.5C811.137 70.1 807.137 68.2 801.604 66.8L785.004 62.5C779.204 60.9667 774.837 58.3667 771.904 54.7C768.971 50.9667 767.504 46.5667 767.504 41.5C767.504 36.9 768.404 32.8333 770.204 29.3C772.071 25.7 774.771 22.9333 778.304 21C781.837 19 786.037 18 790.904 18C796.971 18 802.404 19.0333 807.204 21.1L814.504 18H816.704V38.4H814.504L807.304 23.8C802.304 21.4 796.871 20.2 791.004 20.2C785.204 20.2 780.637 21.7 777.304 24.7C773.971 27.6333 772.304 31.5333 772.304 36.4C772.304 40 773.471 42.8333 775.804 44.9C778.204 46.9667 781.704 48.6 786.304 49.8L804.204 54.5C810.004 55.9667 814.304 58.5 817.104 62.1C819.971 65.6333 821.404 71.0333 821.404 78.3C821.404 85.7 819.104 91.5 814.504 95.7C809.971 99.9 803.871 102 796.204 102ZM862.805 102C856.605 102 850.505 100.233 844.505 96.7L836.005 101H833.805V75.3H836.005L844.605 93.9C850.139 97.8333 856.472 99.8 863.605 99.8C869.472 99.8 874.305 98.2667 878.105 95.2C881.972 92.0667 883.905 87.7 883.905 82.1C883.905 78.0333 882.672 74.8333 880.205 72.5C877.739 70.1 873.739 68.2 868.205 66.8L851.605 62.5C845.805 60.9667 841.439 58.3667 838.505 54.7C835.572 50.9667 834.105 46.5667 834.105 41.5C834.105 36.9 835.005 32.8333 836.805 29.3C838.672 25.7 841.372 22.9333 844.905 21C848.439 19 852.639 18 857.505 18C863.572 18 869.005 19.0333 873.805 21.1L881.105 18H883.305V38.4H881.105L873.905 23.8C868.905 21.4 863.472 20.2 857.605 20.2C851.805 20.2 847.239 21.7 843.905 24.7C840.572 27.6333 838.905 31.5333 838.905 36.4C838.905 40 840.072 42.8333 842.405 44.9C844.805 46.9667 848.305 48.6 852.905 49.8L870.805 54.5C876.605 55.9667 880.905 58.5 883.705 62.1C886.572 65.6333 888.005 71.0333 888.005 78.3C888.005 85.7 885.705 91.5 881.105 95.7C876.572 99.9 870.472 102 862.805 102ZM936.807 102C929.54 102 923.04 100.233 917.307 96.7C911.574 93.1667 907.107 88.2333 903.907 81.9C900.707 75.5 899.107 68.2 899.107 60C899.107 51.8 900.707 44.5333 903.907 38.2C907.107 31.8 911.574 26.8333 917.307 23.3C923.04 19.7667 929.54 18 936.807 18C944.074 18 950.574 19.7667 956.307 23.3C962.04 26.8333 966.507 31.8 969.707 38.2C972.907 44.5333 974.507 51.8 974.507 60C974.507 68.2 972.907 75.5 969.707 81.9C966.507 88.2333 962.04 93.1667 956.307 96.7C950.574 100.233 944.074 102 936.807 102ZM936.807 99.7C941.607 99.7 945.907 98.4333 949.707 95.9C953.574 93.3667 956.607 89.7 958.807 84.9C961.007 80.0333 962.107 74.3 962.107 67.7V52.3C962.107 45.7 961.007 40 958.807 35.2C956.607 30.3333 953.574 26.6333 949.707 24.1C945.907 21.5667 941.607 20.3 936.807 20.3C931.94 20.3 927.607 21.5667 923.807 24.1C920.007 26.6333 917.007 30.3333 914.807 35.2C912.607 40 911.507 45.7 911.507 52.3V67.7C911.507 74.3 912.607 80.0333 914.807 84.9C917.007 89.7 920.007 93.3667 923.807 95.9C927.607 98.4333 931.94 99.7 936.807 99.7ZM1042.04 101C1038.3 101 1035.5 100.1 1033.64 98.3C1031.77 96.5 1030.5 93.4333 1029.84 89.1L1027.94 75.7C1027.27 71.1667 1025.7 67.6333 1023.24 65.1C1020.84 62.5 1017.07 61.2 1011.94 61.2H1004.14V96.4L1013.34 97.9V100H983.938V97.9L993.137 96.4V23.6L983.938 22.2V20H1011.94C1022.8 20 1030.67 21.7 1035.54 25.1C1040.4 28.5 1042.84 33.6667 1042.84 40.6C1042.84 52.0667 1035.9 58.7 1022.04 60.5V61.1C1027.17 61.8333 1031.27 63.6667 1034.34 66.6C1037.47 69.5333 1039.44 73.4333 1040.24 78.3L1041.54 86.9C1042.07 90.6333 1042.67 93.1667 1043.34 94.5C1044.07 95.8333 1045.17 96.5 1046.64 96.5C1047.64 96.5 1048.7 96.2 1049.84 95.6C1050.97 94.9333 1052.04 94.1 1053.04 93.1L1054.74 94.9C1052.8 97.1 1050.8 98.6667 1048.74 99.6C1046.67 100.533 1044.44 101 1042.04 101ZM1015.34 58.8C1020.2 58.8 1023.97 57.3333 1026.64 54.4C1029.37 51.4 1030.74 47 1030.74 41.2V39.1C1030.74 28.0333 1024.47 22.5 1011.94 22.5H1004.14V58.8H1015.34ZM1088.29 102C1082.09 102 1075.99 100.233 1069.99 96.7L1061.49 101H1059.29V75.3H1061.49L1070.09 93.9C1075.63 97.8333 1081.96 99.8 1089.09 99.8C1094.96 99.8 1099.79 98.2667 1103.59 95.2C1107.46 92.0667 1109.39 87.7 1109.39 82.1C1109.39 78.0333 1108.16 74.8333 1105.69 72.5C1103.23 70.1 1099.23 68.2 1093.69 66.8L1077.09 62.5C1071.29 60.9667 1066.93 58.3667 1063.99 54.7C1061.06 50.9667 1059.59 46.5667 1059.59 41.5C1059.59 36.9 1060.49 32.8333 1062.29 29.3C1064.16 25.7 1066.86 22.9333 1070.39 21C1073.93 19 1078.13 18 1082.99 18C1089.06 18 1094.49 19.0333 1099.29 21.1L1106.59 18H1108.79V38.4H1106.59L1099.39 23.8C1094.39 21.4 1088.96 20.2 1083.09 20.2C1077.29 20.2 1072.73 21.7 1069.39 24.7C1066.06 27.6333 1064.39 31.5333 1064.39 36.4C1064.39 40 1065.56 42.8333 1067.89 44.9C1070.29 46.9667 1073.79 48.6 1078.39 49.8L1096.29 54.5C1102.09 55.9667 1106.39 58.5 1109.19 62.1C1112.06 65.6333 1113.49 71.0333 1113.49 78.3C1113.49 85.7 1111.19 91.5 1106.59 95.7C1102.06 99.9 1095.96 102 1088.29 102Z" fill="black"/>
<path d="M62.1 101C58.3667 101 55.5667 100.1 53.7 98.3C51.8333 96.5 50.5667 93.4333 49.9 89.1L48 75.7C47.3333 71.1667 45.7667 67.6333 43.3 65.1C40.9 62.5 37.1333 61.2 32 61.2H24.2V96.4L33.4 97.9V100H4V97.9L13.2 96.4V23.6L4 22.2V20H32C42.8667 20 50.7333 21.7 55.6 25.1C60.4667 28.5 62.9 33.6667 62.9 40.6C62.9 52.0667 55.9667 58.7 42.1 60.5V61.1C47.2333 61.8333 51.3333 63.6667 54.4 66.6C57.5333 69.5333 59.5 73.4333 60.3 78.3L61.6 86.9C62.1333 90.6333 62.7333 93.1667 63.4 94.5C64.1333 95.8333 65.2333 96.5 66.7 96.5C67.7 96.5 68.7667 96.2 69.9 95.6C71.0333 94.9333 72.1 94.1 73.1 93.1L74.8 94.9C72.8667 97.1 70.8667 98.6667 68.8 99.6C66.7333 100.533 64.5 101 62.1 101ZM35.4 58.8C40.2667 58.8 44.0333 57.3333 46.7 54.4C49.4333 51.4 50.8 47 50.8 41.2V39.1C50.8 28.0333 44.5333 22.5 32 22.5H24.2V58.8H35.4ZM69.8562 100V97.9L79.6563 93.9L108.556 18H110.156L137.456 96.4L146.656 97.9V100H117.256V97.9L125.456 96.6L116.956 72.9H90.3563L82.2563 93.9L91.2563 97.9V100H69.8562ZM91.1563 70.8H116.256L104.256 35.6L91.1563 70.8ZM157.8 100V97.9L167 96.4V22.5H150.5L142.9 42.3H140V20H205.1V42.3H202.1L194.6 22.5H178V96.4L187.2 97.9V100H157.8ZM211.52 100V97.9L220.72 96.4V23.6L211.52 22.2V20H271.72V42.9H269.02L261.32 22.5H231.72V58.5H244.72L250.62 44H253.22V75.6H250.62L244.62 60.9H231.72V97.6H263.12L271.32 75.6H273.92V100H211.52Z" fill="black"/>
<path fill-rule="evenodd" clip-rule="evenodd" d="M355.791 6V115.397C373.755 107.984 386.417 90.1484 386.417 69.3197V6H355.791Z" fill="#E21B38"/>
<path fill-rule="evenodd" clip-rule="evenodd" d="M325.554 6H288V63.6873L325.554 6Z" fill="#E21B38"/>
<path fill-rule="evenodd" clip-rule="evenodd" d="M298.709 100.3C305.658 109.116 315.505 115.491 326.794 117.95V57.3833L298.709 100.3Z" fill="#E21B38"/>
</svg>
